<?xml version="1.0" encoding="UTF-8"?>
<svg width="18px" height="18px" viewBox="0 0 18 18" version="1.1" xmlns="http://www.w3.org/2000/svg" xmlns:xlink="http://www.w3.org/1999/xlink">
    <!-- Generator: sketchtool 52 (66869) - http://www.bohemiancoding.com/sketch -->
    <title>FF7C2B8E-50C6-4B81-9CA5-0C674AEFA741</title>
    <desc>Created with sketchtool.</desc>
    <g id="Page-1" stroke="none" stroke-width="1" fill="none" fill-rule="evenodd">
        <g id="Icon-Graveyard" transform="translate(-71.000000, -620.000000)" fill="#3F51B5" fill-rule="nonzero">
            <g id="Tolbar-Icons" transform="translate(24.000000, 453.000000)">
                <g id="Create" transform="translate(44.000000, 164.000000)">
                    <path d="M18.3716814,5.62831858 C21.8761062,9.13274336 21.8761062,14.8672566 18.3716814,18.3716814 C14.8672566,21.8761062 9.13274336,21.8761062 5.62831858,18.3716814 C2.12389381,14.8672566 2.12389381,9.13274336 5.62831858,5.62831858 C9.13274336,2.12389381 14.8672566,2.12389381 18.3716814,5.62831858 Z M12.8920354,17.479646 L12.8920354,12.8920354 L17.479646,12.8920354 L17.479646,11.1079646 L12.8920354,11.1079646 L12.8920354,6.52035398 L11.1079646,6.52035398 L11.1079646,11.1079646 L6.52035398,11.1079646 L6.52035398,12.8920354 L11.1079646,12.8920354 L11.1079646,17.479646 L12.8920354,17.479646 Z" id="Shape"></path>
                </g>
            </g>
        </g>
    </g>
</svg>