<?xml version="1.0" encoding="UTF-8"?>
<svg width="18px" height="18px" viewBox="0 0 18 18" version="1.1" xmlns="http://www.w3.org/2000/svg" xmlns:xlink="http://www.w3.org/1999/xlink">
    <!-- Generator: sketchtool 52 (66869) - http://www.bohemiancoding.com/sketch -->
    <title>6531C546-CD24-4083-B32E-702C93A6C389</title>
    <desc>Created with sketchtool.</desc>
    <g id="Page-1" stroke="none" stroke-width="1" fill="none" fill-rule="evenodd">
        <g id="Icon-Graveyard" transform="translate(-203.000000, -484.000000)" fill="#4556B7" fill-rule="nonzero">
            <g id="Tolbar-Icons" transform="translate(24.000000, 453.000000)">
                <g id="Edit" transform="translate(176.000000, 28.000000)">
                    <path d="M12,3 C7.02943725,3 3,7.02943725 3,12 C3,14.3869484 3.94821156,16.6761336 5.63603897,18.363961 C7.32386638,20.0517884 9.61305159,21 12,21 C14.3869484,21 16.6761336,20.0517884 18.363961,18.363961 C20.0517884,16.6761336 21,14.3869484 21,12 L19.2,12 C19.2,15.9764502 15.9764502,19.2 12,19.2 C8.0235498,19.2 4.8,15.9764502 4.8,12 C4.8,8.0235498 8.0235498,4.8 12,4.8 L12,3 Z M18.102,3.9 C17.949,3.9 17.787,3.963 17.67,4.08 L16.572,5.169 L18.822,7.419 L19.92,6.33 C20.154,6.096 20.154,5.7 19.92,5.475 L18.525,4.08 C18.408,3.963 18.255,3.9 18.102,3.9 Z M15.933,5.808 L9.3,12.45 L9.3,14.7 L11.55,14.7 L18.183,8.058 L15.933,5.808 Z" id="Shape"></path>
                </g>
            </g>
        </g>
    </g>
</svg>