<?xml version="1.0" encoding="UTF-8"?>
<svg width="18px" height="18px" viewBox="0 0 18 18" version="1.1" xmlns="http://www.w3.org/2000/svg" xmlns:xlink="http://www.w3.org/1999/xlink">
    <!-- Generator: sketchtool 52 (66869) - http://www.bohemiancoding.com/sketch -->
    <title>1FCCD95F-FB40-45A2-AD35-94F3A6B22355</title>
    <desc>Created with sketchtool.</desc>
    <g id="Page-1" stroke="none" stroke-width="1" fill="none" fill-rule="evenodd">
        <g id="Icon-Graveyard" transform="translate(-203.000000, -552.000000)" fill="#3F51B5" fill-rule="nonzero">
            <g id="Tolbar-Icons" transform="translate(24.000000, 453.000000)">
                <g id="Exit" transform="translate(176.000000, 96.000000)">
                    <path d="M12,3 C7.05,3 3,7.05 3,12 C3,16.95 7.05,21 12,21 C16.95,21 21,16.95 21,12 C21,7.05 16.95,3 12,3 Z M16.5,15.24 L15.24,16.5 L12,13.26 L8.76,16.5 L7.5,15.24 L10.74,12 L7.5,8.76 L8.76,7.5 L12,10.74 L15.24,7.5 L16.5,8.76 L13.26,12 L16.5,15.24 Z" id="Shape"></path>
                </g>
            </g>
        </g>
    </g>
</svg>