<?xml version="1.0" encoding="UTF-8"?>
<svg width="18px" height="18px" viewBox="0 0 18 18" version="1.1" xmlns="http://www.w3.org/2000/svg" xmlns:xlink="http://www.w3.org/1999/xlink">
    <!-- Generator: sketchtool 52 (66869) - http://www.bohemiancoding.com/sketch -->
    <title>D7AE51AF-417A-4DCF-B91F-79EAC91792A6</title>
    <desc>Created with sketchtool.</desc>
    <g id="Page-1" stroke="none" stroke-width="1" fill="none" fill-rule="evenodd">
        <g id="Icon-Graveyard" transform="translate(-203.000000, -586.000000)" fill="#BABABA" fill-rule="nonzero">
            <g id="Tolbar-Icons" transform="translate(24.000000, 453.000000)">
                <g id="Save" transform="translate(176.000000, 130.000000)">
                    <path d="M17,3 L5,3 C3.9,3 3,3.9 3,5 L3,19 C3,20.1 3.9,21 5,21 L19,21 C20.1,21 21,20.1 21,19 L21,7 L17,3 Z M12,19 C10.3,19 9,17.7 9,16 C9,14.3 10.3,13 12,13 C13.7,13 15,14.3 15,16 C15,17.7 13.7,19 12,19 Z M15,9 L5,9 L5,5 L15,5 L15,9 Z" id="Shape"></path>
                </g>
            </g>
        </g>
    </g>
</svg>
